<svg baseProfile="tiny" xmlns="http://www.w3.org/2000/svg" viewBox="0 0 200 150"><path fill="#005B99" d="M200.1 87.7l-100 50-100-50 100-50z"/><path fill="#008CFF" d="M200.1 62.2l-100 50-100-50 100-50z"/><path fill="#FFF" d="M131.1 54.5l5.6-2.8c4-2 7.4-2.3 10.2-.9 1.9 1 2.7 2.1 2.4 3.3-.3 1.2-1.7 2.5-4.2 3.7l-9.6 4.8c-2.1 1-4.3 1.6-6.7 1.7-2.4.1-4.5-.3-6.3-1.2-1.2-.6-2.5-1.7-3.7-3.2l-6.4-7.7c-.4-.4-.8-.8-1.4-1.1-2.1-1-4.1-1-6.2 0-1.6.8-2.5 2-2.6 3.5-.1 1.5.5 3.1 2 4.8l7.8 9.2c2.5 3 2.1 5.3-1.2 7-1.3.6-2.8 1-4.6 1-1.8 0-3.2-.2-4.4-.8-.9-.5-1.8-1.1-2.5-2l-.8-.9-7.9-9.3c-.7-.8-1.4-1.4-2-1.7-.7-.3-1.6-.5-2.8-.4-1.2.1-2.2.3-3 .7-3.4 1.7-3.7 4.3-.7 7.8l8.1 9.6c2.5 3 2.2 5.3-1.1 7-1.3.6-2.8 1-4.6 1-1.8 0-3.3-.2-4.5-.8-.9-.5-1.8-1.1-2.5-2l-1-.8-13.8-16.3c-1.9-2.3-1.6-4.1 1.1-5.4 2.8-1.4 5.8-1.6 9-.6.3-2 .8-3.5 1.6-4.4.7-1 2.1-1.9 4.1-2.9 4.2-2.1 9.3-2.8 15.1-2-.2-3.6 2-6.5 6.4-8.8 3-1.5 6.5-2.3 10.2-2.5 3.8-.1 7 .4 9.5 1.7 1.6.8 2.9 1.8 3.9 3l7.5 8.7z"/></svg>